<svg width="12" height="19" viewBox="0 0 12 19" fill="none" xmlns="http://www.w3.org/2000/svg">
<path d="M1.15039 18.6C0.900391 18.35 0.775391 18.054 0.775391 17.712C0.775391 17.37 0.900391 17.0743 1.15039 16.825L8.47539 9.5L1.12539 2.15C0.892057 1.91667 0.775391 1.625 0.775391 1.275C0.775391 0.925 0.900391 0.625 1.15039 0.375C1.40039 0.125 1.69639 0 2.03839 0C2.38039 0 2.67606 0.125 2.92539 0.375L11.3254 8.8C11.4254 8.9 11.4964 9.00833 11.5384 9.125C11.5804 9.24167 11.6011 9.36667 11.6004 9.5C11.6004 9.63333 11.5794 9.75833 11.5374 9.875C11.4954 9.99167 11.4247 10.1 11.3254 10.2L2.90039 18.625C2.66706 18.8583 2.37939 18.975 2.03739 18.975C1.69539 18.975 1.39972 18.85 1.15039 18.6Z" fill="#636466"/>
</svg>
