<svg width="320" height="56" viewBox="0 0 320 56" fill="none" xmlns="http://www.w3.org/2000/svg">
<path fill-rule="evenodd" clip-rule="evenodd" d="M8.4675 23.0766C13.1854 24.9397 20.2192 26.1674 29.5522 26.1674C38.8858 26.1674 45.92 24.9397 50.6381 23.0766C52.9953 22.1457 54.8003 21.0462 56.0253 19.8368C57.2491 18.6286 57.9409 17.26 57.9409 15.806C57.9409 14.352 57.2491 12.9834 56.0253 11.7752C54.8003 10.5658 52.9953 9.4663 50.6381 8.53542C45.92 6.67225 38.8858 5.44458 29.5522 5.44458C20.2192 5.44458 13.1854 6.67225 8.4675 8.53543C6.11037 9.4663 4.30547 10.5658 3.08052 11.7752C1.85682 12.9834 1.16504 14.3521 1.16504 15.806C1.16504 17.2599 1.85682 18.6286 3.08052 19.8368C4.30547 21.0462 6.11037 22.1457 8.4675 23.0766ZM46.2449 17.3374C45.4223 15.8224 43.5583 14.5275 40.8144 13.6052C38.0449 12.6743 34.2881 12.0924 29.5522 12.0924C24.8151 12.0924 21.0575 12.6745 18.2876 13.6057C15.5433 14.5283 13.6792 15.8236 12.8568 17.339C12.6286 17.7593 12.3135 18.2189 11.9717 18.5361C11.6203 18.8622 11.3256 18.9635 11.0942 18.895C9.72945 18.4915 8.64916 18.0361 7.8442 17.5557C7.0309 17.0703 6.5401 16.5839 6.29988 16.1459C6.07921 15.7435 6.06363 15.3789 6.22021 14.9973C6.39485 14.5717 6.8065 14.077 7.54565 13.5617C9.01695 12.5359 11.5752 11.5729 15.2639 10.8698C18.9408 10.1689 23.7025 9.73317 29.5522 9.73317C35.4023 9.73317 40.1643 10.1688 43.8413 10.8696C47.53 11.5726 50.0883 12.5355 51.5594 13.5611C52.2985 14.0764 52.71 14.571 52.8845 14.9965C53.041 15.378 53.0254 15.7426 52.8045 16.145C52.5641 16.5831 52.0731 17.0696 51.2595 17.555C50.4543 18.0355 49.3738 18.491 48.0087 18.8946C47.7772 18.9631 47.4824 18.8617 47.1307 18.5353C46.7886 18.2178 46.4733 17.7579 46.2449 17.3374ZM38.9216 20.0717C36.8455 20.4871 33.721 20.7763 29.5522 20.7988C25.3837 20.7763 22.2595 20.4871 20.1835 20.0717C19.1418 19.8632 18.3865 19.6273 17.9009 19.39C17.6618 19.2732 17.5125 19.1676 17.4291 19.0856C17.5058 19.0113 17.6414 18.9147 17.8588 18.807C18.3295 18.5739 19.0731 18.3422 20.111 18.1393C22.1789 17.735 25.3193 17.4623 29.5522 17.4623C33.7856 17.4623 36.9263 17.735 38.9944 18.1393C40.0324 18.3422 40.7761 18.5739 41.2468 18.807C41.4642 18.9147 41.5998 19.0113 41.6765 19.0855C41.593 19.1676 41.4437 19.2731 41.2045 19.39C40.7189 19.6272 39.9635 19.8632 38.9216 20.0717ZM41.7355 19.154C41.7363 19.156 41.737 19.157 41.737 19.157L41.7366 19.1561L41.7355 19.154ZM41.735 19.0162L41.7361 19.014C41.7361 19.014 41.736 19.0144 41.735 19.0162Z" fill="#70BEFB"/>
<path fill-rule="evenodd" clip-rule="evenodd" d="M22.7556 47.7083C23.4479 48.4122 24.4754 48.9141 25.6206 49.2469C26.7759 49.5826 28.0967 49.7592 29.4162 49.7765C30.7357 49.7938 32.068 49.652 33.2462 49.3414C34.4154 49.0331 35.4745 48.5479 36.2113 47.8444C36.4432 47.623 36.6146 47.3326 36.6486 46.9859C36.6833 46.6325 36.5651 46.3235 36.3884 46.1044C36.0497 45.6846 35.4779 45.5412 34.9361 45.7165C31.6286 46.7868 27.797 46.8235 24.0302 45.6244C23.5077 45.4581 22.9546 45.5971 22.6215 46.0014C22.448 46.212 22.3278 46.5098 22.3527 46.8549C22.3773 47.1954 22.5359 47.4851 22.7556 47.7083Z" fill="#70BEFB"/>
<path fill-rule="evenodd" clip-rule="evenodd" d="M16.7743 38.4958C17.6559 40.1514 19.5145 41.3288 21.7259 42.1048C23.9622 42.8895 26.6624 43.2997 29.3615 43.3308C32.0605 43.3619 34.7829 43.0141 37.0633 42.2643C39.3223 41.5216 41.2397 40.3543 42.209 38.6616C42.3843 38.3555 42.4645 38.0142 42.4281 37.6731C42.392 37.3358 42.2475 37.0528 42.0554 36.8466C41.6779 36.4416 41.0957 36.3 40.5437 36.5098C33.9628 39.0104 26.0745 39.147 18.4223 36.4C17.8911 36.2092 17.3306 36.3466 16.9617 36.7342C16.7738 36.9316 16.6296 37.203 16.5873 37.5291C16.5445 37.8593 16.6132 38.1931 16.7743 38.4958Z" fill="#70BEFB"/>
<path fill-rule="evenodd" clip-rule="evenodd" d="M9.92129 29.393C10.4868 30.4488 11.4771 31.328 12.7183 32.0585C13.967 32.7934 15.5137 33.4035 17.2488 33.8933C20.7198 34.873 24.9998 35.3862 29.2848 35.4221C33.5699 35.4579 37.8837 35.0166 41.4222 34.0727C43.1911 33.6008 44.7795 32.9999 46.0781 32.2611C47.3707 31.5258 48.4138 30.6327 49.0457 29.5519C49.2181 29.2571 49.2998 28.9272 49.2723 28.5954C49.2452 28.2669 49.1151 27.9849 48.9358 27.7735C48.5828 27.3575 48.0252 27.188 47.482 27.3568C36.8764 30.6526 23.9339 30.859 11.4766 27.2664C10.9573 27.1167 10.4227 27.2791 10.077 27.6726C9.90104 27.8729 9.76892 28.1412 9.73312 28.4577C9.69688 28.7781 9.76476 29.1008 9.92129 29.393Z" fill="#70BEFB"/>
<path d="M87.0449 21.6858V24.8565H92.2494V27.517H87.0449V30.6513H95.7069V21.6858H87.0449ZM85.3707 21.6858V32.3278H88.7554V21.6858H85.3707ZM79.3292 16.2554V36.4461H83.4418V19.8999H100.293V16.2554H79.3292ZM97.6722 16.2554V31.9998C97.6722 32.51 97.4538 32.6558 96.9079 32.6558C96.362 32.6558 94.3239 32.6923 92.6133 32.5829C93.1592 33.6398 93.7051 35.3163 93.8507 36.4461C96.6531 36.4461 98.6185 36.4097 100.038 35.7901C101.421 35.1706 101.821 34.0772 101.821 32.0727V16.2554H97.6722ZM82.3136 3.57239V18.0777H86.2078V7.21693H94.979V18.0777H99.0916V3.57239H82.3136ZM88.5007 9.65878V17.9683H91.9582V12.8295H97.0535V9.65878H88.5007ZM70.6308 5.61334C72.8145 6.56092 75.6169 8.20096 76.9271 9.47655L79.4748 5.83201C78.0554 4.66576 75.2166 3.1715 73.0329 2.33325L70.6308 5.61334ZM68.7383 15.49C70.9584 16.4012 73.688 17.9683 74.9982 19.1346L77.5458 15.49C76.1264 14.3602 73.2876 12.9389 71.1403 12.1735L68.7383 15.49ZM69.6845 33.4212L73.5788 36.0452C75.4713 32.4736 77.473 28.2095 79.1108 24.2734L75.6533 21.6858C73.7972 25.9863 71.3951 30.6149 69.6845 33.4212Z" fill="#2378BF"/>
<path d="M118.29 19.3897H122.985V21.3213H118.29V19.3897ZM118.29 14.7611H122.985V16.6198H118.29V14.7611ZM114.832 11.8455V24.2369H126.588V11.8455H114.832ZM134.85 3.4995V31.4896C134.85 31.9998 134.704 32.1456 134.304 32.1456C133.867 32.1456 132.52 32.1456 131.283 32.0727C131.792 33.1661 132.265 35.1341 132.375 36.2639C134.668 36.2639 136.16 36.1181 137.324 35.4257C138.453 34.7332 138.707 33.4941 138.707 31.5625V3.4995H134.85ZM128.116 3.4995V18.4057C128.116 23.4716 127.898 29.9224 125.023 34.223C125.896 34.6603 127.534 35.8995 128.189 36.5555C131.428 31.8176 131.938 24.0183 131.938 18.4057V3.4995H128.116ZM129.863 3.4995V7.39916H136.706V3.4995H129.863ZM129.863 11.8091V15.7087H136.596V11.8091H129.863ZM114.396 5.97779V9.73167H127.025V5.97779H114.396ZM113.813 26.4601V30.3233H127.134V26.4601H113.813ZM129.863 20.2644V24.164H136.596V20.2644H129.863ZM118.799 2.3697V13.1575H122.766V2.3697H118.799ZM118.799 23.7267V36.4461H122.766V23.7267H118.799ZM106.316 5.17599C108.136 6.56092 110.429 8.6383 111.411 10.0232L114.432 7.14404C113.34 5.79556 110.974 3.9004 109.155 2.62481L106.316 5.17599ZM105.151 14.7611C107.08 16.0367 109.628 17.9319 110.793 19.171L113.522 16.0732C112.248 14.7976 109.628 13.0846 107.699 11.9548L105.151 14.7611ZM105.879 34.0772L109.737 36.1546C111.12 32.3643 112.576 27.845 113.704 23.6903L110.283 21.54C108.973 26.0956 107.189 31.0158 105.879 34.0772Z" fill="#2378BF"/>
<path d="M162.936 25.3538L160.245 34.609H154.865L147.185 5.32281H151.827L154.561 16.1422L157.772 29.8728C159.074 25.0062 160.347 20.4294 161.59 16.1422L164.584 5.75732H168.533L171.614 16.1856L175.562 29.9597C176.633 24.6876 177.631 20.0962 178.556 16.1856L181.116 5.32281H185.629L178.469 34.609H173.132L170.355 25.3538L166.58 12.275C165.915 15.0269 164.7 19.3865 162.936 25.3538ZM206.891 15.4643C208.713 17.5963 209.624 20.3135 209.624 23.6158C209.624 26.9181 208.69 29.641 206.821 31.7846C204.958 33.9282 202.392 35 199.124 35C195.884 35 193.338 33.9427 191.487 31.8281C189.635 29.7135 188.71 27.034 188.71 23.7896C188.71 20.4873 189.664 17.7412 191.574 15.5512C193.483 13.3671 195.999 12.275 199.124 12.275C202.479 12.275 205.068 13.3381 206.891 15.4643ZM193.136 23.6592C193.136 25.8318 193.671 27.6626 194.741 29.1515C195.811 30.6462 197.272 31.3936 199.124 31.3936C201.091 31.3936 202.586 30.6694 203.61 29.221C204.64 27.7726 205.155 25.9332 205.155 23.7027C205.155 21.4143 204.663 19.5372 203.68 18.0714C202.696 16.6114 201.163 15.8815 199.08 15.8815C197.2 15.8815 195.739 16.6259 194.698 18.1149C193.656 19.6096 193.136 21.4577 193.136 23.6592ZM225.939 27.3961L223.943 34.609H219.127L212.228 12.5792H216.74L218.78 19.879C219.445 22.1964 220.009 24.2386 220.472 26.0056C220.935 27.7726 221.224 28.9603 221.34 29.5686L221.513 30.4811C221.889 28.6561 222.844 25.1076 224.377 19.8355L226.503 12.5792H230.625L232.795 19.8355C233.489 22.2398 234.082 24.3313 234.574 26.1099C235.066 27.8943 235.384 29.0762 235.529 29.6555L235.702 30.5245C236.049 28.8155 237.033 25.2525 238.653 19.8355L240.822 12.5792H245.118L238.132 34.609H233.272L231.233 27.3961C230.625 25.1945 230.096 23.245 229.645 21.5475C229.199 19.8558 228.904 18.7058 228.76 18.0975L228.586 17.2285C228.181 19.1113 227.299 22.5005 225.939 27.3961ZM270.276 28.6561V33.1751C268.483 34.3627 265.995 34.9566 262.813 34.9566C258.445 34.9566 254.872 33.5951 252.095 30.8722C249.318 28.1492 247.93 24.4993 247.93 19.9224C247.93 15.4904 249.327 11.8839 252.121 9.10307C254.91 6.32219 258.445 4.93174 262.726 4.93174C265.85 4.93174 268.353 5.46764 270.233 6.53944V10.928C268.96 10.2328 267.812 9.74615 266.788 9.46806C265.758 9.19576 264.447 9.05962 262.856 9.05962C259.935 9.05962 257.499 10.0503 255.549 12.0317C253.594 14.0189 252.616 16.6491 252.616 19.9224C252.616 23.2537 253.585 25.9042 255.523 27.874C257.461 29.8438 260.021 30.8287 263.203 30.8287C266.009 30.8287 268.367 30.1045 270.276 28.6561ZM293.36 19.8355V34.609H289.108V20.7046C289.108 19.1982 288.726 18.0309 287.962 17.2024C287.193 16.3797 286.186 15.9684 284.942 15.9684C283.496 15.9684 282.217 16.5188 281.107 17.6195C279.99 18.7203 279.432 20.4004 279.432 22.6599V34.609H275.179V3.88892H279.432V16.3594C280.676 13.6365 282.946 12.275 286.244 12.275C288.385 12.275 290.106 12.9413 291.408 14.2738C292.709 15.6063 293.36 17.4602 293.36 19.8355ZM316.054 15.4643C317.876 17.5963 318.787 20.3135 318.787 23.6158C318.787 26.9181 317.853 29.641 315.984 31.7846C314.121 33.9282 311.556 35 308.287 35C305.047 35 302.501 33.9427 300.65 31.8281C298.799 29.7135 297.873 27.034 297.873 23.7896C297.873 20.4873 298.827 17.7412 300.737 15.5512C302.646 13.3671 305.163 12.275 308.287 12.275C311.642 12.275 314.231 13.3381 316.054 15.4643ZM302.299 23.6592C302.299 25.8318 302.834 27.6626 303.904 29.1515C304.975 30.6462 306.435 31.3936 308.287 31.3936C310.254 31.3936 311.749 30.6694 312.773 29.221C313.803 27.7726 314.318 25.9332 314.318 23.7027C314.318 21.4143 313.826 19.5372 312.843 18.0714C311.859 16.6114 310.326 15.8815 308.243 15.8815C306.363 15.8815 304.902 16.6259 303.861 18.1149C302.819 19.6096 302.299 21.4577 302.299 23.6592Z" fill="#369CF0"/>
<path fill-rule="evenodd" clip-rule="evenodd" d="M170.356 25.3537L166.581 12.2749C166.512 12.5593 166.438 12.8609 166.357 13.1797C165.659 15.9452 164.518 20.0032 162.936 25.3537L160.246 34.6088H154.865L147.185 5.32268H151.828L154.562 16.142L157.773 29.8726C157.858 29.5536 157.943 29.2358 158.028 28.9192C159.241 24.4072 160.429 20.1482 161.591 16.142L164.585 5.75719H168.534L171.614 16.1855L175.563 29.9595C175.63 29.6273 175.698 29.2978 175.764 28.971C176.759 24.1115 177.69 19.8497 178.557 16.1855L181.117 5.32268H185.63L178.47 34.6088H173.133L170.356 25.3537ZM178.104 16.0779L180.748 4.85601H186.224L178.836 35.0755H172.787L169.908 25.4833L166.612 14.0629C165.902 16.8009 164.825 20.6095 163.383 25.4855L160.596 35.0755H154.506L146.581 4.85601H152.191L155.016 16.0356L157.804 27.9601C158.939 23.7554 160.052 19.7729 161.143 16.0126M161.144 16.0118L164.235 5.29052H168.882L172.062 16.0567L175.487 28.0041C176.415 23.5021 177.287 19.5265 178.104 16.0779M207.245 15.1607C209.152 17.3918 210.091 20.2228 210.091 23.6157C210.091 27.0116 209.127 29.8494 207.173 32.0914C205.208 34.3525 202.505 35.4666 199.124 35.4666C195.773 35.4666 193.091 34.3673 191.137 32.1356C189.2 29.9229 188.244 27.1285 188.244 23.7895C188.244 20.3907 189.23 17.5307 191.223 15.2442C193.228 12.9502 195.878 11.8082 199.124 11.8082C202.586 11.8082 205.317 12.9106 207.245 15.1607ZM206.822 31.7845C208.691 29.6409 209.625 26.918 209.625 23.6157C209.625 20.3134 208.714 17.5962 206.891 15.4642C205.069 13.338 202.48 12.2749 199.124 12.2749C196 12.2749 193.483 13.367 191.574 15.5511C189.665 17.741 188.71 20.4872 188.71 23.7895C188.71 27.0338 189.636 29.7133 191.487 31.828C193.339 33.9426 195.884 34.9999 199.124 34.9999C202.393 34.9999 204.959 33.9281 206.822 31.7845ZM195.12 28.8787L195.121 28.8794C196.102 30.2507 197.422 30.9268 199.124 30.9268C200.96 30.9268 202.305 30.261 203.231 28.9512L203.231 28.9502C204.192 27.599 204.69 25.8609 204.69 23.7026C204.69 21.4797 204.212 19.7005 203.294 18.3316C202.414 17.0257 201.041 16.348 199.081 16.348C197.346 16.348 196.031 17.0232 195.081 18.3818C194.104 19.7831 193.602 21.5329 193.602 23.6591C193.602 25.7524 194.117 27.483 195.12 28.8787ZM194.698 18.1147C195.74 16.6258 197.201 15.8813 199.081 15.8813C201.164 15.8813 202.697 16.6113 203.68 18.0713C204.664 19.537 205.156 21.4141 205.156 23.7026C205.156 25.9331 204.641 27.7725 203.611 29.2209C202.587 30.6693 201.091 31.3934 199.124 31.3934C197.273 31.3934 195.812 30.6461 194.742 29.1514C193.671 27.6624 193.136 25.8317 193.136 23.6591C193.136 21.4576 193.657 19.6095 194.698 18.1147ZM228.337 18.3288C228.348 18.2821 228.359 18.2361 228.369 18.1906C228.37 18.1854 228.372 18.1802 228.373 18.175C228.455 17.8257 228.526 17.5101 228.587 17.2283L228.76 18.0973C228.777 18.1669 228.795 18.2435 228.816 18.3272C228.974 18.9756 229.251 20.049 229.646 21.5474C230.097 23.2449 230.626 25.1944 231.234 27.3959L233.273 34.6088H238.133L245.119 12.579H240.823L238.654 19.8354C237.325 24.2792 236.424 27.4753 235.952 29.4238C235.941 29.4691 235.93 29.5138 235.919 29.5578C235.918 29.5646 235.916 29.5714 235.914 29.5783C235.828 29.9397 235.758 30.2551 235.703 30.5244L235.529 29.6554C235.512 29.5876 235.493 29.5115 235.471 29.4272C235.308 28.7911 235.009 27.6853 234.575 26.1098C234.083 24.3312 233.49 22.2397 232.796 19.8354L230.626 12.579H226.504L224.378 19.8354C223.118 24.1672 222.249 27.3354 221.77 29.34C221.758 29.3919 221.746 29.4431 221.734 29.4934C221.646 29.8651 221.573 30.1943 221.514 30.481L221.34 29.5685C221.327 29.4978 221.311 29.4193 221.293 29.333C221.155 28.6764 220.882 27.5672 220.473 26.0055C220.01 24.2385 219.446 22.1963 218.78 19.8789L216.741 12.579H212.228L219.128 34.6088H223.944L225.94 27.3959C227.067 23.3392 227.865 20.3168 228.337 18.3288ZM228.58 19.303C228.094 21.2733 227.363 24.0139 226.389 27.521L224.298 35.0755H218.785L211.594 12.1124H217.095L219.228 19.7499L219.229 19.751C219.895 22.0704 220.46 24.1159 220.923 25.8871C221.183 26.8764 221.389 27.6892 221.541 28.3228C222.049 26.3059 222.847 23.4313 223.93 19.7049L226.155 12.1124H230.973L233.243 19.7058C233.938 22.1112 234.532 24.2045 235.024 25.9852C235.309 27.0199 235.536 27.8543 235.706 28.4867C236.217 26.4946 237.052 23.5635 238.207 19.7015L240.476 12.1124H245.756L238.474 35.0755H232.921L230.784 27.5202C230.177 25.3177 229.647 23.3667 229.195 21.6674L229.195 21.6664C228.942 20.7052 228.737 19.9171 228.58 19.303ZM270.743 27.717V33.4258L270.534 33.5642C268.636 34.8212 266.046 35.4231 262.814 35.4231C258.34 35.4231 254.645 34.0247 251.77 31.2055C248.888 28.3793 247.464 24.6008 247.464 19.9223C247.464 15.3829 248.9 11.6519 251.793 8.77227C254.677 5.89621 258.334 4.46495 262.727 4.46495C265.898 4.46495 268.489 5.008 270.464 6.13375L270.7 6.26798V11.714L270.01 11.3376C268.759 10.6543 267.646 10.1846 266.668 9.91874C265.691 9.66067 264.425 9.52615 262.857 9.52615C260.053 9.52615 257.739 10.4717 255.882 12.3591L255.55 12.0316C257.5 10.0502 259.935 9.05949 262.857 9.05949C264.448 9.05949 265.758 9.19563 266.788 9.46793C267.686 9.71166 268.679 10.1156 269.767 10.6798C269.921 10.7593 270.076 10.842 270.233 10.9279V6.53931C268.353 5.46751 265.851 4.93161 262.727 4.93161C258.446 4.93161 254.911 6.32205 252.122 9.10294C249.328 11.8838 247.931 15.4903 247.931 19.9223C247.931 24.4992 249.319 28.1491 252.096 30.872C254.873 33.595 258.446 34.9564 262.814 34.9564C265.996 34.9564 268.483 34.3626 270.277 33.1749V28.656C270.124 28.7717 269.969 28.8827 269.811 28.9892C267.988 30.2154 265.786 30.8286 263.204 30.8286C260.022 30.8286 257.462 29.8437 255.524 27.8739C253.586 25.9041 252.617 23.2536 252.617 19.9223C252.617 16.649 253.594 14.0187 255.55 12.0316L255.882 12.3591C254.027 14.2439 253.083 16.7487 253.083 19.9223C253.083 23.1578 254.021 25.6812 255.856 27.5464C257.693 29.4134 260.126 30.3619 263.204 30.3619C265.927 30.3619 268.181 29.6609 269.995 28.284L270.743 27.717ZM293.827 35.0755H288.643V20.7044C288.643 19.2758 288.282 18.2363 287.621 17.5197C286.95 16.8027 286.072 16.4349 284.943 16.4349C283.63 16.4349 282.466 16.9291 281.435 17.9511L281.434 17.9519C280.439 18.9326 279.898 20.4699 279.898 22.6597V35.0755H274.714V3.42212H279.898V14.6497C280.435 13.9327 281.078 13.346 281.829 12.8956C283.053 12.162 284.532 11.8082 286.245 11.8082C288.49 11.8082 290.339 12.5114 291.741 13.9473C293.15 15.3892 293.827 17.3731 293.827 19.8354V35.0755ZM279.898 15.4802C279.73 15.7555 279.574 16.0485 279.432 16.3593V3.88879H275.18V34.6088H279.432V22.6597C279.432 20.4003 279.991 18.7202 281.107 17.6194C282.218 16.5186 283.497 15.9682 284.943 15.9682C286.187 15.9682 287.194 16.3796 287.963 17.2023C288.727 18.0307 289.109 19.1981 289.109 20.7044V34.6088H293.361V19.8354C293.361 17.4601 292.71 15.6061 291.408 14.2736C290.107 12.9411 288.385 12.2749 286.245 12.2749C283.323 12.2749 281.208 13.3433 279.898 15.4802ZM316.408 15.1607C318.316 17.3918 319.254 20.2228 319.254 23.6157C319.254 27.0113 318.291 29.8489 316.337 32.0909C314.371 34.3523 311.668 35.4666 308.287 35.4666C304.936 35.4666 302.254 34.3673 300.3 32.1356C298.363 29.9229 297.408 27.1285 297.408 23.7895C297.408 20.3907 298.393 17.5307 300.386 15.2442C302.391 12.9502 305.041 11.8082 308.287 11.8082C311.749 11.8082 314.48 12.9106 316.408 15.1607ZM315.985 31.7845C317.854 29.6409 318.788 26.918 318.788 23.6157C318.788 20.3134 317.877 17.5962 316.054 15.4642C314.232 13.338 311.643 12.2749 308.287 12.2749C305.163 12.2749 302.647 13.367 300.737 15.5511C298.828 17.741 297.874 20.4872 297.874 23.7895C297.874 27.0338 298.799 29.7133 300.651 31.828C302.502 33.9426 305.048 34.9999 308.287 34.9999C311.556 34.9999 314.122 33.9281 315.985 31.7845ZM304.283 28.8787L304.284 28.8794C305.266 30.2507 306.585 30.9268 308.287 30.9268C310.123 30.9268 311.468 30.261 312.394 28.9512L312.394 28.9502C313.355 27.599 313.853 25.8609 313.853 23.7026C313.853 21.4801 313.375 19.7011 312.457 18.3323C311.577 17.026 310.205 16.348 308.244 16.348C306.509 16.348 305.194 17.0234 304.243 18.3824C303.267 19.7837 302.765 21.5332 302.765 23.6591C302.765 25.7524 303.28 27.483 304.283 28.8787ZM303.862 18.1147C304.903 16.6258 306.364 15.8813 308.244 15.8813C310.327 15.8813 311.86 16.6113 312.843 18.0713C313.827 19.537 314.319 21.4141 314.319 23.7026C314.319 25.9331 313.804 27.7725 312.774 29.2209C311.75 30.6693 310.254 31.3934 308.287 31.3934C306.436 31.3934 304.975 30.6461 303.905 29.1514C302.835 27.6624 302.299 25.8317 302.299 23.6591C302.299 21.4576 302.82 19.6095 303.862 18.1147Z" fill="#369CF0"/>
<path d="M74.02 53.3741C75.3662 53.3741 76.4179 52.8405 77.2452 51.8716L76.3618 50.8465C75.7588 51.5206 75.0296 51.9418 74.0901 51.9418C72.2671 51.9418 71.1173 50.4393 71.1173 47.9819C71.1173 45.5667 72.3513 44.0782 74.1322 44.0782C74.9735 44.0782 75.6186 44.4574 76.1514 45.005L77.0208 43.9519C76.3898 43.2778 75.3942 42.66 74.1041 42.66C71.4959 42.66 69.4346 44.668 69.4346 48.0381C69.4346 51.4363 71.4398 53.3741 74.02 53.3741Z" fill="#2378BF"/>
<path d="M78.9207 53.1775H80.5473V48.3751C81.0241 47.1535 81.7813 46.7041 82.3983 46.7041C82.7208 46.7041 82.9171 46.7462 83.1836 46.8305L83.464 45.4263C83.2256 45.3139 82.9872 45.2578 82.6086 45.2578C81.7813 45.2578 80.968 45.8475 80.4211 46.8445H80.379L80.2388 45.4544H78.9207V53.1775Z" fill="#2378BF"/>
<path d="M87.6646 53.3741C88.6742 53.3741 89.5576 53.0371 90.2728 52.5597L89.7119 51.5206C89.1369 51.8857 88.562 52.0963 87.8749 52.0963C86.5427 52.0963 85.6173 51.2257 85.4911 49.7513H90.4971C90.5392 49.5547 90.5673 49.2457 90.5673 48.9228C90.5673 46.7322 89.4595 45.2578 87.4262 45.2578C85.6313 45.2578 83.9065 46.8165 83.9065 49.33C83.9065 51.8716 85.5612 53.3741 87.6646 53.3741ZM85.463 48.6279C85.6313 47.2798 86.4867 46.5356 87.4542 46.5356C88.576 46.5356 89.165 47.2939 89.165 48.6279H85.463Z" fill="#2378BF"/>
<path d="M93.9309 53.3741C94.8564 53.3741 95.6838 52.9107 96.3849 52.3069H96.441L96.5672 53.1775H97.8993V48.5436C97.8993 46.4794 97.0159 45.2578 95.0948 45.2578C93.8608 45.2578 92.7671 45.7773 91.9818 46.2688L92.5848 47.3781C93.2298 46.9569 94.001 46.5777 94.8144 46.5777C95.9362 46.5777 96.2587 47.3641 96.2727 48.2628C93.0756 48.6138 91.6733 49.4704 91.6733 51.1274C91.6733 52.4895 92.6128 53.3741 93.9309 53.3741ZM94.4357 52.0822C93.7486 52.0822 93.2298 51.7733 93.2298 51.015C93.2298 50.1444 93.987 49.5687 96.2727 49.3019V51.1835C95.6417 51.7733 95.1088 52.0822 94.4357 52.0822Z" fill="#2378BF"/>
<path d="M102.48 53.3741C103.055 53.3741 103.574 53.2197 104.009 53.0792L103.714 51.8857C103.476 51.984 103.153 52.0822 102.887 52.0822C102.088 52.0822 101.751 51.5908 101.751 50.678V46.7462H103.77V45.4544H101.751V43.32H100.405L100.223 45.4544L99.0168 45.5386V46.7462H100.139V50.664C100.139 52.2788 100.756 53.3741 102.48 53.3741Z" fill="#2378BF"/>
<path d="M108.384 53.3741C109.393 53.3741 110.277 53.0371 110.992 52.5597L110.431 51.5206C109.856 51.8857 109.281 52.0963 108.594 52.0963C107.262 52.0963 106.336 51.2257 106.21 49.7513H111.216C111.258 49.5547 111.286 49.2457 111.286 48.9228C111.286 46.7322 110.178 45.2578 108.145 45.2578C106.35 45.2578 104.626 46.8165 104.626 49.33C104.626 51.8716 106.28 53.3741 108.384 53.3741ZM106.182 48.6279C106.35 47.2798 107.206 46.5356 108.173 46.5356C109.295 46.5356 109.884 47.2939 109.884 48.6279H106.182Z" fill="#2378BF"/>
<path d="M117.947 53.1775H119.826L122.491 45.4544H120.92L119.602 49.6108C119.378 50.3691 119.153 51.1555 118.929 51.9137H118.859C118.634 51.1555 118.41 50.3691 118.186 49.6108L116.882 45.4544H115.227L117.947 53.1775Z" fill="#2378BF"/>
<path d="M125.331 53.3741C126.257 53.3741 127.084 52.9107 127.785 52.3069H127.841L127.968 53.1775H129.3V48.5436C129.3 46.4794 128.416 45.2578 126.495 45.2578C125.261 45.2578 124.167 45.7773 123.382 46.2688L123.985 47.3781C124.63 46.9569 125.401 46.5777 126.215 46.5777C127.337 46.5777 127.659 47.3641 127.673 48.2628C124.476 48.6138 123.074 49.4704 123.074 51.1274C123.074 52.4895 124.013 53.3741 125.331 53.3741ZM125.836 52.0822C125.149 52.0822 124.63 51.7733 124.63 51.015C124.63 50.1444 125.387 49.5687 127.673 49.3019V51.1835C127.042 51.7733 126.509 52.0822 125.836 52.0822Z" fill="#2378BF"/>
<path d="M133.187 53.3741C133.593 53.3741 133.846 53.3039 134.056 53.2337L133.846 52.012C133.706 52.0401 133.649 52.0401 133.579 52.0401C133.383 52.0401 133.201 51.8857 133.201 51.4504V42H131.574V51.3661C131.574 52.6158 132.009 53.3741 133.187 53.3741Z" fill="#2378BF"/>
<path d="M138.022 53.3741C139.088 53.3741 139.831 52.8265 140.532 52.012H140.575L140.701 53.1775H142.033V45.4544H140.42V50.8185C139.775 51.6329 139.284 51.9699 138.569 51.9699C137.658 51.9699 137.265 51.4504 137.265 50.1163V45.4544H135.653V50.3129C135.653 52.2788 136.382 53.3741 138.022 53.3741Z" fill="#2378BF"/>
<path d="M147.672 53.3741C148.681 53.3741 149.565 53.0371 150.28 52.5597L149.719 51.5206C149.144 51.8857 148.569 52.0963 147.882 52.0963C146.55 52.0963 145.624 51.2257 145.498 49.7513H150.504C150.546 49.5547 150.574 49.2457 150.574 48.9228C150.574 46.7322 149.467 45.2578 147.433 45.2578C145.638 45.2578 143.914 46.8165 143.914 49.33C143.914 51.8716 145.568 53.3741 147.672 53.3741ZM145.47 48.6279C145.638 47.2798 146.494 46.5356 147.461 46.5356C148.583 46.5356 149.172 47.2939 149.172 48.6279H145.47Z" fill="#2378BF"/>
<path d="M152.277 56C153.735 55.4524 154.591 54.3149 154.591 52.8265C154.591 51.7452 154.128 51.0993 153.342 51.0993C152.725 51.0993 152.207 51.4925 152.207 52.1384C152.207 52.7984 152.725 53.1775 153.3 53.1775C153.567 53.1775 153.819 53.0933 154.016 52.8826L153.342 51.8295L153.455 53.1214C153.455 53.9639 152.894 54.68 151.926 55.0873L152.277 56Z" fill="#2378BF"/>
<path d="M161.819 53.3741C163.712 53.3741 164.735 52.321 164.735 51.015C164.735 49.5687 163.557 49.0772 162.478 48.67C161.622 48.3611 160.879 48.1083 160.879 47.4483C160.879 46.9147 161.272 46.4935 162.127 46.4935C162.758 46.4935 163.305 46.7884 163.838 47.1675L164.595 46.1705C163.978 45.679 163.123 45.2578 162.099 45.2578C160.374 45.2578 159.337 46.2267 159.337 47.5186C159.337 48.8385 160.472 49.3862 161.51 49.7793C162.337 50.0883 163.207 50.4112 163.207 51.0993C163.207 51.6891 162.772 52.1384 161.861 52.1384C161.019 52.1384 160.36 51.7874 159.673 51.2538L158.916 52.3069C159.659 52.9248 160.753 53.3741 161.819 53.3741Z" fill="#2378BF"/>
<path d="M166.453 53.1775H168.079V47.7011C168.752 47.0271 169.243 46.662 169.958 46.662C170.856 46.662 171.248 47.1815 171.248 48.5296V53.1775H172.875V48.319C172.875 46.3671 172.146 45.2578 170.505 45.2578C169.454 45.2578 168.668 45.8335 168.009 46.4794L168.079 44.9488V42H166.453V53.1775Z" fill="#2378BF"/>
<path d="M176.985 53.3741C177.91 53.3741 178.738 52.9107 179.439 52.3069H179.495L179.621 53.1775H180.953V48.5436C180.953 46.4794 180.07 45.2578 178.149 45.2578C176.915 45.2578 175.821 45.7773 175.036 46.2688L175.639 47.3781C176.284 46.9569 177.055 46.5777 177.868 46.5777C178.99 46.5777 179.313 47.3641 179.327 48.2628C176.13 48.6138 174.727 49.4704 174.727 51.1274C174.727 52.4895 175.667 53.3741 176.985 53.3741ZM177.49 52.0822C176.803 52.0822 176.284 51.7733 176.284 51.015C176.284 50.1444 177.041 49.5687 179.327 49.3019V51.1835C178.696 51.7733 178.163 52.0822 177.49 52.0822Z" fill="#2378BF"/>
<path d="M183.228 53.1775H184.854V48.3751C185.331 47.1535 186.088 46.7041 186.705 46.7041C187.028 46.7041 187.224 46.7462 187.491 46.8305L187.771 45.4263C187.533 45.3139 187.294 45.2578 186.916 45.2578C186.088 45.2578 185.275 45.8475 184.728 46.8445H184.686L184.546 45.4544H183.228V53.1775Z" fill="#2378BF"/>
<path d="M191.972 53.3741C192.981 53.3741 193.865 53.0371 194.58 52.5597L194.019 51.5206C193.444 51.8857 192.869 52.0963 192.182 52.0963C190.85 52.0963 189.924 51.2257 189.798 49.7513H194.804C194.846 49.5547 194.874 49.2457 194.874 48.9228C194.874 46.7322 193.767 45.2578 191.733 45.2578C189.938 45.2578 188.214 46.8165 188.214 49.33C188.214 51.8716 189.868 53.3741 191.972 53.3741ZM189.77 48.6279C189.938 47.2798 190.794 46.5356 191.761 46.5356C192.883 46.5356 193.472 47.2939 193.472 48.6279H189.77Z" fill="#2378BF"/>
<path d="M201.942 53.3741C203.835 53.3741 204.859 52.321 204.859 51.015C204.859 49.5687 203.681 49.0772 202.601 48.67C201.746 48.3611 201.003 48.1083 201.003 47.4483C201.003 46.9147 201.395 46.4935 202.251 46.4935C202.882 46.4935 203.428 46.7884 203.961 47.1675L204.719 46.1705C204.102 45.679 203.246 45.2578 202.222 45.2578C200.498 45.2578 199.46 46.2267 199.46 47.5186C199.46 48.8385 200.596 49.3862 201.634 49.7793C202.461 50.0883 203.33 50.4112 203.33 51.0993C203.33 51.6891 202.896 52.1384 201.984 52.1384C201.143 52.1384 200.484 51.7874 199.797 51.2538L199.039 52.3069C199.783 52.9248 200.876 53.3741 201.942 53.3741Z" fill="#2378BF"/>
<path d="M208.848 53.3741C209.913 53.3741 210.657 52.8265 211.358 52.012H211.4L211.526 53.1775H212.858V45.4544H211.246V50.8185C210.601 51.6329 210.11 51.9699 209.395 51.9699C208.483 51.9699 208.091 51.4504 208.091 50.1163V45.4544H206.478V50.3129C206.478 52.2788 207.207 53.3741 208.848 53.3741Z" fill="#2378BF"/>
<path d="M218.413 53.3741C219.31 53.3741 220.222 53.0371 220.923 52.4193L220.264 51.338C219.801 51.7312 219.226 52.0401 218.581 52.0401C217.291 52.0401 216.408 50.9589 216.408 49.33C216.408 47.6871 217.319 46.6058 218.637 46.6058C219.156 46.6058 219.591 46.8305 220.011 47.1956L220.797 46.1565C220.25 45.651 219.535 45.2578 218.553 45.2578C216.52 45.2578 214.739 46.7462 214.739 49.33C214.739 51.8857 216.337 53.3741 218.413 53.3741Z" fill="#2378BF"/>
<path d="M225.232 53.3741C226.13 53.3741 227.041 53.0371 227.743 52.4193L227.083 51.338C226.621 51.7312 226.046 52.0401 225.401 52.0401C224.111 52.0401 223.227 50.9589 223.227 49.33C223.227 47.6871 224.139 46.6058 225.457 46.6058C225.976 46.6058 226.41 46.8305 226.831 47.1956L227.616 46.1565C227.069 45.651 226.354 45.2578 225.373 45.2578C223.339 45.2578 221.559 46.7462 221.559 49.33C221.559 51.8857 223.157 53.3741 225.232 53.3741Z" fill="#2378BF"/>
<path d="M232.136 53.3741C233.146 53.3741 234.029 53.0371 234.744 52.5597L234.184 51.5206C233.609 51.8857 233.034 52.0963 232.347 52.0963C231.014 52.0963 230.089 51.2257 229.963 49.7513H234.969C235.011 49.5547 235.039 49.2457 235.039 48.9228C235.039 46.7322 233.931 45.2578 231.898 45.2578C230.103 45.2578 228.378 46.8165 228.378 49.33C228.378 51.8716 230.033 53.3741 232.136 53.3741ZM229.935 48.6279C230.103 47.2798 230.958 46.5356 231.926 46.5356C233.048 46.5356 233.637 47.2939 233.637 48.6279H229.935Z" fill="#2378BF"/>
<path d="M238.957 53.3741C240.85 53.3741 241.874 52.321 241.874 51.015C241.874 49.5687 240.696 49.0772 239.616 48.67C238.761 48.3611 238.017 48.1083 238.017 47.4483C238.017 46.9147 238.41 46.4935 239.265 46.4935C239.896 46.4935 240.443 46.7884 240.976 47.1675L241.733 46.1705C241.116 45.679 240.261 45.2578 239.237 45.2578C237.513 45.2578 236.475 46.2267 236.475 47.5186C236.475 48.8385 237.611 49.3862 238.648 49.7793C239.476 50.0883 240.345 50.4112 240.345 51.0993C240.345 51.6891 239.91 52.1384 238.999 52.1384C238.158 52.1384 237.499 51.7874 236.811 51.2538L236.054 52.3069C236.797 52.9248 237.891 53.3741 238.957 53.3741Z" fill="#2378BF"/>
<path d="M245.694 53.3741C247.587 53.3741 248.611 52.321 248.611 51.015C248.611 49.5687 247.433 49.0772 246.353 48.67C245.498 48.3611 244.755 48.1083 244.755 47.4483C244.755 46.9147 245.147 46.4935 246.003 46.4935C246.634 46.4935 247.181 46.7884 247.714 47.1675L248.471 46.1705C247.854 45.679 246.998 45.2578 245.975 45.2578C244.25 45.2578 243.212 46.2267 243.212 47.5186C243.212 48.8385 244.348 49.3862 245.386 49.7793C246.213 50.0883 247.083 50.4112 247.083 51.0993C247.083 51.6891 246.648 52.1384 245.736 52.1384C244.895 52.1384 244.236 51.7874 243.549 51.2538L242.792 52.3069C243.535 52.9248 244.629 53.3741 245.694 53.3741Z" fill="#2378BF"/>
<path d="M250.987 49.8917H252.067L252.292 44.2748L252.334 42.5898H250.707L250.749 44.2748L250.987 49.8917ZM251.52 53.3741C252.137 53.3741 252.6 52.8967 252.6 52.2367C252.6 51.5627 252.137 51.0993 251.52 51.0993C250.917 51.0993 250.441 51.5627 250.441 52.2367C250.441 52.8967 250.917 53.3741 251.52 53.3741Z" fill="#2378BF"/>
</svg>
