<svg width="320" height="56" viewBox="0 0 320 56" fill="none" xmlns="http://www.w3.org/2000/svg">
<path fill-rule="evenodd" clip-rule="evenodd" d="M8.07883 23.0764C12.7967 24.9396 19.8305 26.1673 29.1636 26.1673C38.4971 26.1673 45.5313 24.9396 50.2494 23.0764C52.6066 22.1456 54.4116 21.046 55.6366 19.8367C56.8604 18.6285 57.5522 17.2598 57.5522 15.8059C57.5522 14.3519 56.8604 12.9832 55.6366 11.7751C54.4116 10.5657 52.6066 9.46616 50.2494 8.53529C45.5313 6.67211 38.4971 5.44444 29.1636 5.44444C19.8305 5.44444 12.7967 6.67211 8.07883 8.53529C5.7217 9.46616 3.9168 10.5657 2.69185 11.7751C1.46815 12.9832 0.776367 14.3519 0.776367 15.8059C0.776367 17.2598 1.46815 18.6285 2.69185 19.8367C3.9168 21.046 5.7217 22.1456 8.07883 23.0764ZM45.8563 17.3372C45.0337 15.8223 43.1697 14.5274 40.4258 13.6051C37.6563 12.6742 33.8994 12.0923 29.1636 12.0923C24.4264 12.0923 20.6689 12.6744 17.8989 13.6056C15.1547 14.5282 13.2906 15.8235 12.4681 17.3388C12.24 17.7592 11.9248 18.2187 11.583 18.536C11.2316 18.862 10.9369 18.9633 10.7055 18.8949C9.34077 18.4914 8.26049 18.0359 7.45553 17.5555C6.64223 17.0702 6.15142 16.5838 5.91121 16.1458C5.69053 15.7434 5.67496 15.3788 5.83154 14.9972C6.00617 14.5716 6.41782 14.0768 7.15698 13.5615C8.62827 12.5358 11.1865 11.5728 14.8752 10.8696C18.5521 10.1688 23.3139 9.73303 29.1636 9.73303C35.0136 9.73303 39.7756 10.1687 43.4526 10.8695C47.1414 11.5725 49.6996 12.5353 51.1707 13.561C51.9098 14.0762 52.3213 14.5709 52.4959 14.9964C52.6523 15.3779 52.6367 15.7424 52.4158 16.1449C52.1755 16.583 51.6844 17.0694 50.8709 17.5549C50.0657 18.0353 48.9851 18.4909 47.6201 18.8945C47.3886 18.9629 47.0937 18.8615 46.742 18.5352C46.4 18.2177 46.0846 17.7578 45.8563 17.3372ZM38.533 20.0715C36.4568 20.4869 33.3323 20.7762 29.1636 20.7986C24.9951 20.7762 21.8708 20.4869 19.7949 20.0715C18.7531 19.8631 17.9978 19.6271 17.5122 19.3898C17.2731 19.273 17.1239 19.1674 17.0404 19.0854C17.1171 19.0112 17.2527 18.9145 17.4701 18.8069C17.9408 18.5737 18.6844 18.3421 19.7224 18.1392C21.7903 17.7348 24.9307 17.4621 29.1636 17.4621C33.397 17.4621 36.5377 17.7348 38.6057 18.1392C39.6438 18.3421 40.3874 18.5738 40.8582 18.8069C41.0755 18.9145 41.2111 19.0112 41.2878 19.0854C41.2043 19.1674 41.055 19.273 40.8159 19.3898C40.3302 19.6271 39.5748 19.8631 38.533 20.0715ZM41.3468 19.1539C41.3476 19.1559 41.3483 19.1568 41.3483 19.1568L41.3479 19.156L41.3468 19.1539ZM41.3463 19.0161L41.3474 19.0138C41.3474 19.0138 41.3473 19.0143 41.3463 19.0161Z" fill="#70BEFB"/>
<path fill-rule="evenodd" clip-rule="evenodd" d="M22.3669 47.7082C23.0592 48.4121 24.0868 48.914 25.2319 49.2468C26.3872 49.5825 27.7081 49.7591 29.0275 49.7764C30.347 49.7937 31.6793 49.6519 32.8575 49.3412C34.0268 49.033 35.0858 48.5477 35.8226 47.8443C36.0546 47.6228 36.2259 47.3325 36.2599 46.9858C36.2947 46.6324 36.1764 46.3233 35.9997 46.1043C35.6611 45.6844 35.0892 45.541 34.5474 45.7163C31.24 46.7866 27.4084 46.8234 23.6415 45.6243C23.119 45.4579 22.5659 45.597 22.2328 46.0013C22.0594 46.2118 21.9391 46.5097 21.964 46.8548C21.9886 47.1953 22.1473 47.4849 22.3669 47.7082Z" fill="#70BEFB"/>
<path fill-rule="evenodd" clip-rule="evenodd" d="M16.3857 38.4957C17.2672 40.1513 19.1259 41.3286 21.3372 42.1046C23.5735 42.8894 26.2737 43.2996 28.9728 43.3306C31.6718 43.3617 34.3942 43.014 36.6746 42.2642C38.9336 41.5215 40.851 40.3541 41.8203 38.6615C41.9956 38.3554 42.0759 38.0141 42.0394 37.673C42.0033 37.3357 41.8588 37.0526 41.6667 36.8465C41.2892 36.4415 40.707 36.2998 40.155 36.5096C33.5741 39.0103 25.6858 39.1469 18.0337 36.3998C17.5024 36.2091 16.9419 36.3464 16.5731 36.7341C16.3852 36.9315 16.2409 37.2029 16.1986 37.529C16.1559 37.8592 16.2245 38.193 16.3857 38.4957Z" fill="#70BEFB"/>
<path fill-rule="evenodd" clip-rule="evenodd" d="M9.53262 29.3929C10.0982 30.4487 11.0884 31.3278 12.3296 32.0583C13.5783 32.7933 15.125 33.4034 16.8601 33.8931C20.3311 34.8728 24.6111 35.3861 28.8962 35.4219C33.1812 35.4578 37.495 35.0164 41.0335 34.0726C42.8025 33.6007 44.3908 32.9998 45.6894 32.261C46.982 31.5257 48.0251 30.6325 48.657 29.5518C48.8294 29.2569 48.9111 28.9271 48.8837 28.5952C48.8565 28.2668 48.7264 27.9848 48.5471 27.7734C48.1942 27.3574 47.6365 27.1879 47.0933 27.3567C36.4877 30.6525 23.5452 30.8588 11.0879 27.2663C10.5687 27.1165 10.034 27.2789 9.6883 27.6725C9.51236 27.8728 9.38025 28.1411 9.34445 28.4576C9.30821 28.778 9.37609 29.1007 9.53262 29.3929Z" fill="#70BEFB"/>
<path d="M86.6562 30.2414V33.4121H91.8607V36.0727H86.6562V39.207H95.3182V30.2414H86.6562ZM84.9821 30.2414V40.8834H88.3668V30.2414H84.9821ZM78.9405 24.811V45.0018H83.0531V28.4556H99.9039V24.811H78.9405ZM97.2835 24.811V40.5554C97.2835 41.0657 97.0651 41.2114 96.5192 41.2114C95.9733 41.2114 93.9352 41.2479 92.2246 41.1386C92.7705 42.1955 93.3165 43.872 93.4621 45.0018C96.2645 45.0018 98.2298 44.9653 99.6492 44.3458C101.032 43.7262 101.433 42.6328 101.433 40.6283V24.811H97.2835ZM81.9249 12.128V26.6333H85.8191V15.7726H94.5903V26.6333H98.7029V12.128H81.9249ZM88.112 18.2144V26.524H91.5695V21.3852H96.6648V18.2144H88.112ZM70.2421 14.169C72.4258 15.1166 75.2282 16.7566 76.5384 18.0322L79.0861 14.3876C77.6667 13.2214 74.8279 11.7271 72.6442 10.8889L70.2421 14.169ZM68.3496 24.0457C70.5697 24.9568 73.2993 26.524 74.6095 27.6902L77.1572 24.0457C75.7378 22.9159 72.899 21.4945 70.7517 20.7291L68.3496 24.0457ZM69.2959 41.9768L73.1901 44.6009C75.0827 41.0292 77.0844 36.7651 78.7221 32.829L75.2646 30.2414C73.4085 34.5419 71.0064 39.1705 69.2959 41.9768Z" fill="#2378BF"/>
<path d="M117.901 27.9453H122.596V29.8769H117.901V27.9453ZM117.901 23.3168H122.596V25.1755H117.901V23.3168ZM114.444 20.4011V32.7926H126.199V20.4011H114.444ZM134.461 12.0551V40.0452C134.461 40.5554 134.315 40.7012 133.915 40.7012C133.478 40.7012 132.132 40.7012 130.894 40.6283C131.404 41.7217 131.877 43.6897 131.986 44.8195C134.279 44.8195 135.771 44.6738 136.936 43.9813C138.064 43.2888 138.319 42.0497 138.319 40.1181V12.0551H134.461ZM127.728 12.0551V26.9613C127.728 32.0272 127.509 38.478 124.634 42.7786C125.508 43.2159 127.145 44.4551 127.801 45.1111C131.04 40.3732 131.549 32.5739 131.549 26.9613V12.0551H127.728ZM129.475 12.0551V15.9548H136.317V12.0551H129.475ZM129.475 20.3647V24.2643H136.208V20.3647H129.475ZM114.007 14.5334V18.2873H126.636V14.5334H114.007ZM113.425 35.0157V38.8789H126.745V35.0157H113.425ZM129.475 28.82V32.7197H136.208V28.82H129.475ZM118.411 10.9253V21.7132H122.378V10.9253H118.411ZM118.411 32.2823V45.0018H122.378V32.2823H118.411ZM105.927 13.7316C107.747 15.1166 110.04 17.1939 111.023 18.5789L114.043 15.6997C112.951 14.3512 110.586 12.456 108.766 11.1804L105.927 13.7316ZM104.763 23.3168C106.692 24.5924 109.239 26.4875 110.404 27.7267L113.133 24.6288C111.86 23.3532 109.239 21.6403 107.31 20.5105L104.763 23.3168ZM105.491 42.6328L109.348 44.7102C110.731 40.9199 112.187 36.4007 113.315 32.2459L109.894 30.0956C108.584 34.6513 106.801 39.5714 105.491 42.6328Z" fill="#2378BF"/>
<path d="M162.547 33.1316L159.857 42.3867H154.476L146.796 13.1005H151.439L154.172 23.9199L157.383 37.6505C158.685 32.784 159.958 28.2071 161.202 23.9199L164.196 13.5351H168.144L171.225 23.9634L175.174 37.7374C176.244 32.4653 177.242 27.874 178.168 23.9634L180.728 13.1005H185.24L178.081 42.3867H172.744L169.967 33.1316L166.192 20.0528C165.526 22.8047 164.311 27.1643 162.547 33.1316ZM206.502 23.2421C208.324 25.3741 209.236 28.0912 209.236 31.3935C209.236 34.6958 208.301 37.4188 206.432 39.5624C204.57 41.706 202.004 42.7778 198.735 42.7778C195.495 42.7778 192.949 41.7205 191.098 39.6058C189.247 37.4912 188.321 34.8117 188.321 31.5673C188.321 28.265 189.276 25.5189 191.185 23.329C193.094 21.1448 195.611 20.0528 198.735 20.0528C202.091 20.0528 204.679 21.1159 206.502 23.2421ZM192.747 31.437C192.747 33.6095 193.282 35.4403 194.352 36.9292C195.423 38.424 196.884 39.1713 198.735 39.1713C200.702 39.1713 202.198 38.4471 203.222 36.9987C204.251 35.5504 204.766 33.7109 204.766 31.4804C204.766 29.192 204.275 27.3149 203.291 25.8491C202.307 24.3892 200.774 23.6592 198.692 23.6592C196.811 23.6592 195.35 24.4037 194.309 25.8926C193.268 27.3873 192.747 29.2355 192.747 31.437ZM225.551 35.1738L223.555 42.3867H218.738L211.839 20.3569H216.352L218.391 27.6567C219.056 29.9741 219.62 32.0163 220.083 33.7834C220.546 35.5504 220.835 36.738 220.951 37.3464L221.125 38.2588C221.501 36.4339 222.455 32.8854 223.989 27.6133L226.115 20.3569H230.237L232.406 27.6133C233.101 30.0176 233.694 32.109 234.185 33.8876C234.677 35.672 234.995 36.8539 235.14 37.4333L235.314 38.3023C235.661 36.5932 236.644 33.0302 238.264 27.6133L240.434 20.3569H244.729L237.743 42.3867H232.884L230.844 35.1738C230.237 32.9723 229.707 31.0228 229.256 29.3253C228.811 27.6336 228.516 26.4835 228.371 25.8752L228.197 25.0062C227.792 26.8891 226.91 30.2783 225.551 35.1738ZM269.888 36.4339V40.9528C268.094 42.1405 265.606 42.7343 262.424 42.7343C258.056 42.7343 254.484 41.3728 251.707 38.6499C248.93 35.927 247.541 32.277 247.541 27.7002C247.541 23.2681 248.938 19.6617 251.733 16.8808C254.521 14.0999 258.056 12.7095 262.337 12.7095C265.462 12.7095 267.964 13.2454 269.844 14.3172V18.7058C268.571 18.0105 267.423 17.5239 266.399 17.2458C265.369 16.9735 264.059 16.8374 262.468 16.8374C259.546 16.8374 257.11 17.828 255.161 19.8094C253.205 21.7966 252.227 24.4268 252.227 27.7002C252.227 31.0314 253.196 33.682 255.135 35.6518C257.073 37.6215 259.633 38.6064 262.815 38.6064C265.621 38.6064 267.978 37.8823 269.888 36.4339ZM292.972 27.6133V42.3867H288.719V28.4823C288.719 26.976 288.337 25.8086 287.574 24.9801C286.804 24.1574 285.798 23.7461 284.554 23.7461C283.107 23.7461 281.829 24.2965 280.718 25.3973C279.601 26.498 279.043 28.1781 279.043 30.4376V42.3867H274.791V11.6667H279.043V24.1372C280.287 21.4142 282.558 20.0528 285.855 20.0528C287.996 20.0528 289.717 20.719 291.019 22.0515C292.321 23.384 292.972 25.2379 292.972 27.6133ZM315.665 23.2421C317.487 25.3741 318.399 28.0912 318.399 31.3935C318.399 34.6958 317.464 37.4188 315.596 39.5624C313.733 41.706 311.167 42.7778 307.898 42.7778C304.658 42.7778 302.113 41.7205 300.261 39.6058C298.41 37.4912 297.484 34.8117 297.484 31.5673C297.484 28.265 298.439 25.5189 300.348 23.329C302.257 21.1448 304.774 20.0528 307.898 20.0528C311.254 20.0528 313.843 21.1159 315.665 23.2421ZM301.91 31.437C301.91 33.6095 302.445 35.4403 303.516 36.9292C304.586 38.424 306.047 39.1713 307.898 39.1713C309.865 39.1713 311.361 38.4471 312.385 36.9987C313.414 35.5504 313.929 33.7109 313.929 31.4804C313.929 29.192 313.438 27.3149 312.454 25.8491C311.471 24.3892 309.937 23.6592 307.855 23.6592C305.974 23.6592 304.514 24.4037 303.472 25.8926C302.431 27.3873 301.91 29.2355 301.91 31.437Z" fill="#369CF0"/>
<path fill-rule="evenodd" clip-rule="evenodd" d="M169.967 33.1315L166.192 20.0527C166.124 20.3371 166.049 20.6387 165.968 20.9575C165.27 23.723 164.13 27.781 162.548 33.1315L159.857 42.3866H154.477L146.797 13.1005H151.439L154.173 23.9198L157.384 37.6504C157.469 37.3314 157.555 37.0136 157.64 36.697C158.852 32.185 160.04 27.926 161.202 23.9198L164.196 13.535H168.145L171.226 23.9633L175.174 37.7373C175.242 37.4051 175.309 37.0756 175.376 36.7488C176.37 31.8893 177.301 27.6275 178.168 23.9633L180.728 13.1005H185.241L178.082 42.3866H172.744L169.967 33.1315ZM177.715 23.8557L180.36 12.6338H185.835L178.447 42.8533H172.398L169.52 33.2611L166.223 21.8407C165.513 24.5787 164.436 28.3873 162.995 33.2633L160.207 42.8533H154.117L146.192 12.6338H151.802L154.627 23.8134L157.415 35.7379C158.551 31.5332 159.664 27.5507 160.755 23.7904M160.755 23.7896L163.846 13.0683H168.493L171.674 23.8345L175.099 35.7819C176.026 31.2799 176.899 27.3043 177.715 23.8557M206.857 22.9385C208.764 25.1696 209.702 28.0006 209.702 31.3935C209.702 34.7894 208.739 37.6272 206.784 39.8692C204.819 42.1303 202.116 43.2444 198.736 43.2444C195.384 43.2444 192.702 42.1451 190.748 39.9134C188.811 37.7007 187.856 34.9063 187.856 31.5673C187.856 28.1685 188.841 25.3085 190.835 23.022C192.84 20.7281 195.489 19.586 198.736 19.586C202.197 19.586 204.928 20.6884 206.857 22.9385ZM206.433 39.5623C208.302 37.4187 209.236 34.6958 209.236 31.3935C209.236 28.0912 208.325 25.374 206.503 23.242C204.68 21.1158 202.091 20.0527 198.736 20.0527C195.611 20.0527 193.095 21.1448 191.186 23.3289C189.276 25.5189 188.322 28.265 188.322 31.5673C188.322 34.8116 189.247 37.4911 191.099 39.6058C192.95 41.7204 195.496 42.7777 198.736 42.7777C202.004 42.7777 204.57 41.7059 206.433 39.5623ZM194.731 36.6565L194.732 36.6572C195.714 38.0285 197.033 38.7046 198.736 38.7046C200.571 38.7046 201.916 38.0388 202.842 36.729L202.843 36.728C203.803 35.3768 204.301 33.6387 204.301 31.4804C204.301 29.2575 203.823 27.4783 202.905 26.1094C202.025 24.8035 200.653 24.1258 198.692 24.1258C196.958 24.1258 195.642 24.801 194.692 26.1596C193.716 27.5609 193.214 29.3107 193.214 31.4369C193.214 33.5302 193.728 35.2608 194.731 36.6565ZM194.31 25.8925C195.351 24.4036 196.812 23.6591 198.692 23.6591C200.775 23.6591 202.308 24.3891 203.292 25.8491C204.275 27.3148 204.767 29.1919 204.767 31.4804C204.767 33.7109 204.252 35.5503 203.222 36.9987C202.198 38.4471 200.703 39.1712 198.736 39.1712C196.884 39.1712 195.423 38.4239 194.353 36.9292C193.283 35.4402 192.748 33.6095 192.748 31.4369C192.748 29.2354 193.268 27.3873 194.31 25.8925ZM227.948 26.1066C227.959 26.0599 227.97 26.0139 227.981 25.9684C227.982 25.9632 227.983 25.958 227.984 25.9528C228.066 25.6035 228.137 25.2879 228.198 25.0061L228.372 25.8752C228.388 25.9447 228.407 26.0213 228.427 26.105C228.586 26.7534 228.862 27.8268 229.257 29.3252C229.708 31.0227 230.238 32.9722 230.845 35.1737L232.884 42.3866H237.744L244.73 20.3568H240.434L238.265 27.6132C236.936 32.057 236.035 35.2531 235.563 37.2016C235.552 37.2469 235.541 37.2916 235.531 37.3356C235.529 37.3424 235.527 37.3492 235.526 37.3561C235.439 37.7175 235.369 38.0329 235.314 38.3022L235.141 37.4332C235.124 37.3654 235.104 37.2893 235.083 37.205C234.919 36.5689 234.62 35.4631 234.186 33.8876C233.694 32.109 233.101 30.0175 232.407 27.6132L230.237 20.3568H226.115L223.989 27.6132C222.729 31.945 221.86 35.1132 221.382 37.1178C221.369 37.1698 221.357 37.2209 221.345 37.2712C221.258 37.6429 221.184 37.9721 221.125 38.2588L220.952 37.3463C220.938 37.2756 220.923 37.1971 220.904 37.1108C220.767 36.4542 220.493 35.345 220.084 33.7833C219.621 32.0163 219.057 29.9741 218.392 27.6567L216.352 20.3568H211.84L218.739 42.3866H223.555L225.551 35.1737C226.678 31.117 227.477 28.0946 227.948 26.1066ZM228.191 27.0808C227.705 29.0511 226.974 31.7917 226 35.2988L223.91 42.8533H218.397L211.205 19.8902H216.706L218.84 27.5277L218.84 27.5288C219.506 29.8482 220.071 31.8937 220.535 33.6649C220.794 34.6542 221 35.467 221.152 36.1006C221.661 34.0837 222.458 31.2091 223.542 27.4827L225.766 19.8902H230.584L232.855 27.4836C233.549 29.889 234.143 31.9823 234.635 33.763C234.92 34.7977 235.148 35.6321 235.317 36.2645C235.828 34.2724 236.663 31.3413 237.818 27.4793L240.087 19.8902H245.367L238.085 42.8533H232.532L230.396 35.298C229.788 33.0955 229.258 31.1445 228.807 29.4452L228.806 29.4442C228.553 28.483 228.348 27.6949 228.191 27.0808ZM270.354 35.4948V41.2036L270.145 41.342C268.247 42.599 265.657 43.2009 262.425 43.2009C257.951 43.2009 254.257 41.8025 251.381 38.9833C248.499 36.1571 247.076 32.3786 247.076 27.7001C247.076 23.1608 248.511 19.4297 251.405 16.5501C254.289 13.674 257.946 12.2427 262.338 12.2427C265.509 12.2427 268.1 12.7858 270.075 13.9116L270.311 14.0458V19.4918L269.622 19.1154C268.371 18.4321 267.257 17.9624 266.279 17.6965C265.302 17.4385 264.036 17.304 262.468 17.304C259.664 17.304 257.35 18.2495 255.493 20.1369L255.161 19.8094C257.111 17.828 259.547 16.8373 262.468 16.8373C264.059 16.8373 265.37 16.9734 266.4 17.2457C267.297 17.4895 268.29 17.8934 269.379 18.4576C269.532 18.5371 269.688 18.6198 269.845 18.7057V14.3171C267.965 13.2453 265.462 12.7094 262.338 12.7094C258.057 12.7094 254.522 14.0999 251.733 16.8807C248.939 19.6616 247.542 23.2681 247.542 27.7001C247.542 32.277 248.93 35.9269 251.707 38.6498C254.484 41.3728 258.057 42.7342 262.425 42.7342C265.607 42.7342 268.095 42.1404 269.888 40.9527V36.4338C269.736 36.5495 269.58 36.6605 269.422 36.767C267.6 37.9932 265.397 38.6064 262.815 38.6064C259.633 38.6064 257.073 37.6215 255.135 35.6517C253.197 33.6819 252.228 31.0314 252.228 27.7001C252.228 24.4268 253.206 21.7965 255.161 19.8094L255.493 20.1369C253.638 22.0217 252.694 24.5265 252.694 27.7001C252.694 30.9356 253.632 33.459 255.467 35.3242C257.304 37.1912 259.738 38.1397 262.815 38.1397C265.538 38.1397 267.792 37.4387 269.607 36.0618L270.354 35.4948ZM293.438 42.8533H288.254V28.4822C288.254 27.0536 287.893 26.0141 287.233 25.2975C286.561 24.5805 285.684 24.2127 284.554 24.2127C283.241 24.2127 282.078 24.7069 281.046 25.7289L281.046 25.7297C280.051 26.7104 279.51 28.2477 279.51 30.4375V42.8533H274.325V11.1999H279.51V22.4275C280.046 21.7105 280.689 21.1238 281.44 20.6734C282.664 19.9398 284.143 19.586 285.856 19.586C288.102 19.586 289.95 20.2892 291.353 21.7251C292.761 23.167 293.438 25.1509 293.438 27.6132V42.8533ZM279.51 23.258C279.341 23.5333 279.186 23.8263 279.044 24.1371V11.6666H274.791V42.3866H279.044V30.4375C279.044 28.1781 279.602 26.498 280.719 25.3972C281.829 24.2964 283.108 23.746 284.554 23.746C285.798 23.746 286.805 24.1574 287.574 24.9801C288.338 25.8085 288.72 26.9759 288.72 28.4822V42.3866H292.972V27.6132C292.972 25.2379 292.321 23.3839 291.02 22.0514C289.718 20.7189 287.997 20.0527 285.856 20.0527C282.935 20.0527 280.819 21.1211 279.51 23.258ZM316.02 22.9385C317.927 25.1696 318.865 28.0006 318.865 31.3935C318.865 34.7891 317.902 37.6267 315.948 39.8687C313.983 42.1301 311.28 43.2444 307.899 43.2444C304.547 43.2444 301.865 42.1451 299.911 39.9134C297.974 37.7007 297.019 34.9063 297.019 31.5673C297.019 28.1685 298.004 25.3085 299.998 23.022C302.003 20.728 304.652 19.586 307.899 19.586C311.36 19.586 314.091 20.6884 316.02 22.9385ZM315.596 39.5623C317.465 37.4187 318.399 34.6958 318.399 31.3935C318.399 28.0912 317.488 25.374 315.666 23.242C313.843 21.1158 311.254 20.0527 307.899 20.0527C304.775 20.0527 302.258 21.1448 300.349 23.3289C298.439 25.5189 297.485 28.265 297.485 31.5673C297.485 34.8116 298.411 37.4911 300.262 39.6058C302.113 41.7204 304.659 42.7777 307.899 42.7777C311.168 42.7777 313.733 41.7059 315.596 39.5623ZM303.894 36.6565L303.895 36.6572C304.877 38.0285 306.196 38.7046 307.899 38.7046C309.734 38.7046 311.079 38.0388 312.005 36.729L312.006 36.728C312.966 35.3768 313.464 33.6387 313.464 31.4804C313.464 29.2579 312.987 27.4789 312.068 26.1101C311.188 24.8038 309.816 24.1258 307.855 24.1258C306.121 24.1258 304.805 24.8012 303.855 26.1602C302.879 27.5615 302.377 29.311 302.377 31.4369C302.377 33.5302 302.891 35.2608 303.894 36.6565ZM303.473 25.8925C304.514 24.4036 305.975 23.6591 307.855 23.6591C309.938 23.6591 311.471 24.3891 312.455 25.8491C313.438 27.3148 313.93 29.1919 313.93 31.4804C313.93 33.7109 313.415 35.5503 312.385 36.9987C311.361 38.4471 309.866 39.1712 307.899 39.1712C306.047 39.1712 304.587 38.4239 303.516 36.9292C302.446 35.4402 301.911 33.6095 301.911 31.4369C301.911 29.2354 302.431 27.3873 303.473 25.8925Z" fill="#369CF0"/>
</svg>
