<svg width="80" height="80" viewBox="0 0 80 80" fill="none" xmlns="http://www.w3.org/2000/svg">
<path fill-rule="evenodd" clip-rule="evenodd" d="M40.0003 9.16662C34.475 9.16662 29.176 11.3616 25.269 15.2686C21.3619 19.1756 19.167 24.4746 19.167 30C19.167 35.5253 21.3619 40.8243 25.269 44.7313C29.176 48.6384 34.475 50.8333 40.0003 50.8333C45.5257 50.8333 50.8247 48.6384 54.7317 44.7313C58.6387 40.8243 60.8337 35.5253 60.8337 30C60.8337 24.4746 58.6387 19.1756 54.7317 15.2686C50.8247 11.3616 45.5257 9.16662 40.0003 9.16662ZM14.167 30C14.167 25.7182 15.2312 21.5036 17.264 17.7352C19.2968 13.9668 22.2344 10.7627 25.8126 8.41119C29.3908 6.05965 33.4974 4.63439 37.7631 4.26357C42.0287 3.89276 46.3197 4.58802 50.25 6.28684C54.1803 7.98566 57.6267 10.6347 60.2792 13.9959C62.9318 17.357 64.7074 21.3247 65.4462 25.5422C66.185 29.7597 65.864 34.0948 64.5119 38.1574C63.1598 42.2201 60.8191 45.8829 57.7003 48.8166C57.7887 48.9827 57.858 49.1583 57.907 49.34L60.0737 57.2366C61.0837 60.9266 61.9003 63.8966 62.2703 66.2033C62.6337 68.4633 62.707 70.79 61.4437 72.6833C60.7237 73.76 59.7437 74.6433 58.5903 75.23C56.4903 76.2966 54.2003 75.7733 52.1503 74.9966C50.057 74.21 47.4303 72.84 44.2037 71.1566L44.047 71.0766C41.6337 69.82 41.0037 69.5366 40.397 69.4733C40.1333 69.445 39.8674 69.445 39.6037 69.4733C38.997 69.5366 38.3703 69.82 35.9537 71.0766L35.797 71.1566C32.5703 72.84 29.9437 74.2066 27.8503 74.9966C25.8003 75.7733 23.5103 76.2966 21.4103 75.23C20.2569 74.6393 19.2745 73.7624 18.557 72.6833C17.2937 70.79 17.367 68.4633 17.7303 66.2033C18.1003 63.8966 18.917 60.9266 19.9303 57.2366L22.0937 49.3366C22.143 49.1561 22.2123 48.9817 22.3003 48.8166C19.729 46.4038 17.6804 43.4888 16.2813 40.2522C14.8823 37.0155 14.1627 33.5261 14.167 30ZM26.5337 52.05L24.7937 58.4033C23.727 62.2833 22.9903 64.99 22.667 66.9966C22.3337 69.08 22.5837 69.7066 22.717 69.9033C22.9581 70.2721 23.2898 70.5728 23.6803 70.7766C23.757 70.8133 24.2337 71.02 26.087 70.32C27.8637 69.65 30.2203 68.4233 33.6437 66.6433L33.987 66.4633C35.8803 65.4733 37.4037 64.68 39.0737 64.5C39.6903 64.4333 40.3103 64.4333 40.927 64.5C42.5937 64.6766 44.1203 65.4733 46.0137 66.4633L46.357 66.6433C49.777 68.4233 52.137 69.65 53.9137 70.32C55.767 71.02 56.247 70.8133 56.3203 70.7766C56.7121 70.5731 57.0449 70.2724 57.287 69.9033C57.4203 69.7033 57.667 69.08 57.3337 66.9966C57.0103 64.99 56.2703 62.2833 55.2103 58.4033L53.467 52.05C49.414 54.5313 44.7526 55.8408 40.0003 55.8333C35.2481 55.8408 30.5867 54.5313 26.5337 52.05ZM40.0003 23.45C39.807 23.7833 39.5903 24.17 39.337 24.6266L39.0103 25.2133L38.9337 25.3466C38.6737 25.8266 38.2403 26.62 37.517 27.17C36.7803 27.73 35.8903 27.9233 35.3737 28.0366L35.227 28.0666L34.5937 28.21C34.007 28.3433 33.5303 28.45 33.127 28.5533C33.3903 28.8766 33.7337 29.2833 34.1803 29.8066L34.6137 30.3133L34.7137 30.4266C35.0737 30.8433 35.6537 31.51 35.9237 32.3766C36.1903 33.23 36.097 34.11 36.0403 34.6633C36.0345 34.7155 36.0289 34.7677 36.0237 34.82L35.957 35.4966C35.907 36.0074 35.8604 36.5185 35.817 37.03C36.167 36.8766 36.5603 36.6966 37.0303 36.48L37.627 36.2066L37.7603 36.14C38.2403 35.9166 39.0703 35.5266 40.0003 35.5266C40.9303 35.5266 41.7603 35.9166 42.2403 36.1433L42.3737 36.2066L42.9703 36.48C43.437 36.6966 43.837 36.88 44.1837 37.03C44.1403 36.5185 44.0936 36.0074 44.0437 35.4966L43.977 34.82C43.9718 34.7677 43.9662 34.7155 43.9603 34.6633C43.9037 34.1066 43.8103 33.23 44.077 32.3766C44.3437 31.51 44.927 30.8433 45.287 30.4266L45.387 30.3133L45.8203 29.8066C46.267 29.2833 46.6103 28.8766 46.8737 28.5533C46.4703 28.4533 45.9937 28.3433 45.407 28.21L44.7737 28.0666L44.627 28.0333C44.1103 27.9233 43.2203 27.73 42.4837 27.1666C41.7603 26.62 41.327 25.8266 41.067 25.35L40.9903 25.2133L40.6637 24.6266C40.4103 24.17 40.197 23.7866 40.0003 23.45ZM36.7137 19.3333C37.287 18.5833 38.327 17.5 40.0003 17.5C41.6737 17.5 42.7137 18.5833 43.287 19.3333C43.837 20.0466 44.387 21.0366 44.9537 22.0533L45.0303 22.19L45.357 22.78L45.547 23.1133L45.877 23.19L46.5103 23.3333L46.6703 23.3666C47.7603 23.6166 48.847 23.86 49.6803 24.19C50.6003 24.5533 51.847 25.2566 52.3303 26.8066C52.8037 28.3233 52.207 29.61 51.687 30.44C51.2037 31.2066 50.4703 32.06 49.7203 32.9366L49.6203 33.0533L49.187 33.5633L48.9137 33.8866C48.9203 34.0066 48.937 34.1466 48.9537 34.3366L49.0203 35.0133L49.0337 35.1666C49.147 36.34 49.257 37.4733 49.217 38.38C49.177 39.3333 48.9503 40.7733 47.657 41.75C46.3237 42.7633 44.857 42.5433 43.9237 42.2733C43.0637 42.03 42.047 41.56 41.0237 41.09L40.8803 41.0233L40.2803 40.7466L40.0003 40.6166L39.717 40.75L39.1203 41.0233L38.9737 41.09C37.9537 41.56 36.937 42.03 36.077 42.2733C35.1437 42.54 33.677 42.7633 32.3437 41.75C31.0537 40.7733 30.8237 39.3333 30.7837 38.3833C30.7437 37.4733 30.8503 36.34 30.967 35.1666L30.9803 35.0133L31.047 34.3366L31.0903 33.8866C30.9988 33.7783 30.9066 33.6705 30.8137 33.5633L30.3803 33.0533L30.2803 32.9366C29.5303 32.06 28.797 31.2033 28.3137 30.4366C27.7937 29.61 27.197 28.3233 27.6703 26.8033C28.1503 25.26 29.4003 24.5533 30.3203 24.19C31.1537 23.86 32.2403 23.6166 33.3303 23.37L33.487 23.3366L34.1237 23.19L34.457 23.1133L34.6437 22.78L34.9703 22.19L35.047 22.0533C35.6137 21.0366 36.1637 20.0466 36.7137 19.3333Z" fill="#1F2225"/>
</svg>
