<svg width="80" height="80" viewBox="0 0 80 80" fill="none" xmlns="http://www.w3.org/2000/svg">
<path d="M37.894 10.3829C39.0779 9.93711 40.3714 9.879 41.59 10.2168L42.106 10.3829L63.106 18.3083C64.1708 18.7101 65.1002 19.4082 65.7859 20.3212C66.4716 21.2342 66.8854 22.3245 66.979 23.4651L67 23.9633V40.1552C66.9999 45.0476 65.6873 49.8492 63.2008 54.0532C60.7143 58.2572 57.1462 61.7076 52.873 64.0402L52.075 64.4598L42.013 69.523C41.459 69.8014 40.8538 69.9617 40.2354 69.9939C39.617 70.0262 38.9986 69.9296 38.419 69.7102L37.987 69.523L27.925 64.4598C23.5768 62.2718 19.8963 58.9428 17.272 54.8244C14.6477 50.7059 13.1769 45.9508 13.015 41.061L13 40.1552V23.9633C13 22.8194 13.3229 21.699 13.931 20.7326C14.5391 19.7662 15.4075 18.9936 16.435 18.5045L16.894 18.3083L37.894 10.3829ZM40 16.0379L19 23.9633V40.1552C19.0001 43.9444 20.0124 47.6638 21.9309 50.9241C23.8494 54.1844 26.6035 56.8656 29.905 58.6871L30.61 59.0585L40 63.7835L49.39 59.0585C52.7582 57.3639 55.6117 54.7891 57.6516 51.6036C59.6915 48.4182 60.8429 44.7393 60.985 40.9523L61 40.1552V23.9633L40 16.0379ZM50.299 29.8084C50.8389 29.267 51.5633 28.9526 52.3251 28.9292C53.087 28.9058 53.8291 29.1751 54.4008 29.6824C54.9725 30.1897 55.3309 30.897 55.4032 31.6606C55.4755 32.4243 55.2562 33.187 54.79 33.7938L54.541 34.0776L38.839 49.8831C38.267 50.4587 37.505 50.8028 36.6975 50.8501C35.8901 50.8974 35.0935 50.6446 34.459 50.1397L34.171 49.8831L26.959 42.625C26.4152 42.0829 26.0979 41.3521 26.072 40.5823C26.046 39.8125 26.3134 39.0618 26.8194 38.4839C27.3254 37.906 28.0318 37.5445 28.7939 37.4736C29.556 37.4026 30.3162 37.6275 30.919 38.1022L31.201 38.3528L36.505 43.6907L50.299 29.8084Z" fill="#1F2225"/>
</svg>
