<svg width="80" height="80" viewBox="0 0 80 80" fill="none" xmlns="http://www.w3.org/2000/svg">
<g clip-path="url(#clip0_3316_125)">
<path d="M20 30.0001C22.6522 30.0001 25.1957 31.0536 27.0711 32.929C28.9464 34.8043 30 37.3479 30 40C30 42.6522 28.9464 45.1958 27.0711 47.0711C25.1957 48.9465 22.6522 50 20 50C17.3478 50 14.8043 48.9465 12.9289 47.0711C11.0536 45.1958 10 42.6522 10 40C10 37.3479 11.0536 34.8043 12.9289 32.929C14.8043 31.0536 17.3478 30.0001 20 30.0001ZM33.125 32.735C31.6196 30.0113 29.3043 27.8232 26.4999 26.474C23.6955 25.1248 20.5409 24.6812 17.4732 25.2048C14.4055 25.7283 11.5766 27.1931 9.37845 29.3961C7.18031 31.5991 5.7218 34.4312 5.205 37.5H2.5C1.83696 37.5 1.20107 37.7634 0.732233 38.2323C0.263392 38.7011 0 39.337 0 40C0 40.6631 0.263392 41.299 0.732233 41.7678C1.20107 42.2367 1.83696 42.5 2.5 42.5H5.205C5.82547 46.2147 7.82056 49.56 10.7939 51.8714C13.7673 54.1828 17.5013 55.2912 21.2542 54.9763C25.0071 54.6614 28.5043 52.9463 31.0509 50.1717C33.5975 47.3971 35.0072 43.7661 35 40C35 38.674 35.5268 37.4022 36.4645 36.4645C37.4021 35.5268 38.6739 35 40 35C41.3261 35 42.5979 35.5268 43.5355 36.4645C44.4732 37.4022 45 38.674 45 40C44.9928 43.7661 46.4025 47.3971 48.9491 50.1717C51.4957 52.9463 54.9929 54.6614 58.7458 54.9763C62.4987 55.2912 66.2327 54.1828 69.2061 51.8714C72.1794 49.56 74.1745 46.2147 74.795 42.5H77.5C78.163 42.5 78.7989 42.2367 79.2678 41.7678C79.7366 41.299 80 40.6631 80 40C80 39.337 79.7366 38.7011 79.2678 38.2323C78.7989 37.7634 78.163 37.5 77.5 37.5H74.795C74.2782 34.4312 72.8197 31.5991 70.6216 29.3961C68.4234 27.1931 65.5945 25.7283 62.5268 25.2048C59.4591 24.6812 56.3045 25.1248 53.5001 26.474C50.6957 27.8232 48.3804 30.0113 46.875 32.735C45.0193 30.9749 42.5577 29.9956 40 30.0001C37.34 30.0001 34.92 31.04 33.125 32.735ZM70 40C70 42.6522 68.9464 45.1958 67.0711 47.0711C65.1957 48.9465 62.6522 50 60 50C57.3478 50 54.8043 48.9465 52.9289 47.0711C51.0536 45.1958 50 42.6522 50 40C50 37.3479 51.0536 34.8043 52.9289 32.929C54.8043 31.0536 57.3478 30.0001 60 30.0001C62.6522 30.0001 65.1957 31.0536 67.0711 32.929C68.9464 34.8043 70 37.3479 70 40Z" fill="#1F2225"/>
</g>
<defs>
<clipPath id="clip0_3316_125">
<rect width="80" height="80" fill="white"/>
</clipPath>
</defs>
</svg>
