<svg width="80" height="80" viewBox="0 0 80 80" fill="none" xmlns="http://www.w3.org/2000/svg">
<path d="M33.3331 69.2567C30.4318 68.5987 27.6453 67.5099 25.0664 66.0267M46.6664 10.7434C53.2936 12.257 59.2106 15.9757 63.4486 21.2908C67.6866 26.6058 69.9945 33.2022 69.9945 40.0001C69.9945 46.7979 67.6866 53.3943 63.4486 58.7094C59.2106 64.0244 53.2936 67.7432 46.6664 69.2567M15.2631 56.9767C13.4448 54.335 12.0638 51.4176 11.1731 48.3367M10.4131 35.0001C10.9464 31.8334 11.9731 28.8334 13.4131 26.0834L13.9764 25.0667M23.0231 15.2634C26.1419 13.1164 29.6408 11.5825 33.3331 10.7434" stroke="#1F2225" stroke-width="5" stroke-linecap="round" stroke-linejoin="round"/>
<path d="M30 40.0002L36.6667 46.6668L50 33.3335" stroke="#1F2225" stroke-width="5" stroke-linecap="round" stroke-linejoin="round"/>
</svg>
