<svg width="74" height="57" viewBox="0 0 74 57" fill="none" xmlns="http://www.w3.org/2000/svg">
<path fill-rule="evenodd" clip-rule="evenodd" d="M9.40192 22.6697C15.4762 25.0652 24.5322 26.6436 36.5485 26.6436C48.5654 26.6436 57.622 25.0652 63.6965 22.6697C66.7315 21.4729 69.0554 20.0592 70.6326 18.5043C72.2082 16.9509 73.0989 15.1912 73.0989 13.3218C73.0989 11.4524 72.2082 9.69271 70.6326 8.13936C69.0554 6.58444 66.7315 5.17078 63.6965 3.97394C57.622 1.57843 48.5654 0 36.5485 0C24.5322 0 15.4762 1.57843 9.40192 3.97395C6.36712 5.17078 4.04331 6.58445 2.46619 8.13937C0.890665 9.69272 0 11.4525 0 13.3218C0 15.1912 0.890665 16.9509 2.46619 18.5043C4.04331 20.0592 6.36712 21.4729 9.40192 22.6697ZM58.0404 15.2908C56.9813 13.3429 54.5814 11.678 51.0486 10.4922C47.4829 9.29539 42.646 8.54724 36.5485 8.54724C30.4495 8.54724 25.6116 9.29567 22.0453 10.4929C18.5121 11.6791 16.112 13.3445 15.0531 15.2928C14.7594 15.8332 14.3536 16.4241 13.9135 16.8319C13.4611 17.2512 13.0817 17.3814 12.7838 17.2934C11.0267 16.7746 9.63581 16.189 8.59942 15.5714C7.55229 14.9474 6.92039 14.322 6.61111 13.7589C6.32699 13.2415 6.30694 12.7728 6.50853 12.2821C6.73337 11.7349 7.26338 11.0988 8.21504 10.4362C10.1093 9.11743 13.4031 7.87927 18.1523 6.97526C22.8862 6.07416 29.017 5.5139 36.5485 5.5139C44.0804 5.5139 50.2115 6.07405 54.9456 6.97501C59.6949 7.87887 62.9886 9.11686 64.8828 10.4355C65.8343 11.098 66.3642 11.734 66.5888 12.2811C66.7903 12.7716 66.7702 13.2403 66.4858 13.7577C66.1763 14.321 65.5441 14.9464 64.4967 15.5705C63.46 16.1883 62.0687 16.774 60.3112 17.2929C60.0132 17.3809 59.6336 17.2506 59.1808 16.8309C58.7404 16.4227 58.3344 15.8314 58.0404 15.2908ZM48.6116 18.8063C45.9386 19.3403 41.9158 19.7123 36.5485 19.7411C31.1816 19.7123 27.1591 19.3403 24.4863 18.8063C23.1451 18.5382 22.1726 18.2349 21.5474 17.9298C21.2396 17.7796 21.0474 17.6439 20.9399 17.5384C21.0387 17.443 21.2133 17.3187 21.4932 17.1803C22.0992 16.8805 23.0566 16.5827 24.393 16.3218C27.0554 15.8019 31.0986 15.4513 36.5485 15.4513C41.999 15.4513 46.0427 15.8019 48.7053 16.3218C50.0418 16.5827 50.9992 16.8805 51.6053 17.1803C51.8852 17.3187 52.0597 17.4429 52.1585 17.5383C52.051 17.6438 51.8587 17.7796 51.5509 17.9298C50.9256 18.2349 49.953 18.5382 48.6116 18.8063ZM52.2344 17.6265C52.2355 17.629 52.2363 17.6302 52.2363 17.6302L52.2359 17.6291L52.2344 17.6265ZM52.2338 17.4493L52.2352 17.4464C52.2352 17.4464 52.2351 17.4469 52.2338 17.4493Z" fill="#70BEFB"/>
<path fill-rule="evenodd" clip-rule="evenodd" d="M27.7978 54.3391C28.6892 55.2441 30.0121 55.8894 31.4865 56.3173C32.974 56.7489 34.6746 56.976 36.3734 56.9982C38.0722 57.0204 39.7875 56.8381 41.3044 56.4387C42.8099 56.0424 44.1734 55.4185 45.122 54.5141C45.4207 54.2294 45.6413 53.856 45.6851 53.4103C45.7298 52.9559 45.5775 52.5586 45.3501 52.277C44.9141 51.7371 44.1778 51.5527 43.4802 51.7782C39.2219 53.1543 34.2887 53.2015 29.4389 51.6598C28.7662 51.4459 28.054 51.6247 27.6252 52.1445C27.4019 52.4152 27.247 52.7982 27.2791 53.2419C27.3108 53.6796 27.515 54.052 27.7978 54.3391Z" fill="#70BEFB"/>
<path fill-rule="evenodd" clip-rule="evenodd" d="M20.097 42.4944C21.2319 44.6231 23.625 46.1368 26.4721 47.1345C29.3513 48.1435 32.8279 48.6709 36.3029 48.7108C39.7779 48.7508 43.283 48.3037 46.219 47.3397C49.1274 46.3847 51.5961 44.8839 52.8441 42.7076C53.0698 42.314 53.1731 41.8753 53.1261 41.4367C53.0797 41.003 52.8937 40.6391 52.6463 40.3741C52.1603 39.8534 51.4107 39.6712 50.7 39.9409C42.2271 43.1561 32.0709 43.3317 22.2188 39.7998C21.5348 39.5546 20.8132 39.7311 20.3382 40.2295C20.0963 40.4834 19.9106 40.8323 19.8562 41.2516C19.8011 41.6761 19.8894 42.1053 20.097 42.4944Z" fill="#70BEFB"/>
<path fill-rule="evenodd" clip-rule="evenodd" d="M11.2737 30.7908C12.0018 32.1483 13.2768 33.2786 14.8748 34.2178C16.4825 35.1628 18.4739 35.9472 20.7078 36.5769C25.1767 37.8365 30.6872 38.4964 36.2043 38.5425C41.7213 38.5886 47.2753 38.0212 51.8311 36.8076C54.1086 36.2009 56.1536 35.4283 57.8256 34.4784C59.4898 33.533 60.8328 32.3847 61.6464 30.9951C61.8683 30.6161 61.9735 30.1919 61.9381 29.7653C61.9032 29.343 61.7357 28.9804 61.5048 28.7087C61.0504 28.1738 60.3325 27.9558 59.6331 28.1729C45.9783 32.4103 29.3149 32.6757 13.2762 28.0566C12.6076 27.8641 11.9192 28.0729 11.4741 28.5789C11.2476 28.8364 11.0775 29.1814 11.0314 29.5883C10.9847 30.0003 11.0721 30.4151 11.2737 30.7908Z" fill="#70BEFB"/>
</svg>
